<svg width="16" height="16" viewBox="0 0 16 16" fill="none" xmlns="http://www.w3.org/2000/svg">
<rect width="16" height="16" rx="8" fill="#1C274C"/>
<path d="M13.5 5C14.8807 5 16 3.88071 16 2.5C16 1.11929 14.8807 0 13.5 0C12.1193 0 11 1.11929 11 2.5C11 3.88071 12.1193 5 13.5 5Z" fill="#F72A0F"/>
<path d="M6.32844 13.0391L11.4962 13.0391L8.94589 8.74376H6.32844V13.0391Z" fill="white"/>
<path d="M6.32844 13.0391L8.1461 11.9896L5.12038 6.52899L3.84521 8.60953L6.32844 13.0391Z" fill="white"/>
<path d="M9.75128 3.03906L4.58349 3.03906L7.13383 7.33436H9.75128V3.03906Z" fill="#D2D4DB"/>
<path d="M9.75128 3.03906L7.93361 4.08855L10.9593 9.54913L12.2345 7.46859L9.75128 3.03906Z" fill="#D2D4DB"/>
</svg>
