<svg width="32" height="32" viewBox="0 0 32 32" fill="none" xmlns="http://www.w3.org/2000/svg">
<path fill-rule="evenodd" clip-rule="evenodd" d="M9.14555 1.66664C9.18522 1.66664 9.22543 1.66665 9.26619 1.66665L9.3155 1.66665C9.78408 1.66661 10.0856 1.66659 10.3804 1.69416C11.6488 1.81277 12.8519 2.31112 13.8326 3.12413C14.0606 3.31309 14.2738 3.52632 14.6051 3.85768L15.3736 4.62621C16.5012 5.75382 16.9348 6.17476 17.4355 6.45336C17.7262 6.61508 18.0346 6.7428 18.3545 6.83399C18.9055 6.99107 19.5097 6.99998 21.1044 6.99998L21.6705 6.99998C23.3678 6.99996 24.736 6.99994 25.8185 7.13604C26.9404 7.27709 27.8937 7.57807 28.6768 8.28242C28.808 8.40038 28.9328 8.52521 29.0508 8.65637C29.7551 9.4395 30.0561 10.3927 30.1971 11.5146C30.3332 12.5972 30.3332 13.9654 30.3332 15.6626V18.7419C30.3332 21.1922 30.3332 23.1331 30.129 24.652C29.9188 26.2152 29.476 27.4805 28.4782 28.4783C27.4804 29.4761 26.2151 29.919 24.6519 30.1291C23.1329 30.3334 21.1921 30.3333 18.7417 30.3333H13.258C10.8076 30.3333 8.86678 30.3334 7.34783 30.1291C5.7846 29.919 4.51933 29.4761 3.52152 28.4783C2.5237 27.4805 2.08088 26.2152 1.87071 24.652C1.66649 23.1331 1.6665 21.1922 1.66653 18.7419L1.66653 9.26631C1.66653 9.22555 1.66652 9.18534 1.66651 9.14567C1.66636 8.08446 1.66627 7.40909 1.77633 6.82576C2.25971 4.2638 4.26368 2.25983 6.82564 1.77645C7.40897 1.66639 8.08434 1.66649 9.14555 1.66664ZM9.26619 3.66665C8.044 3.66665 7.57148 3.67102 7.19644 3.74178C5.44353 4.07251 4.07239 5.44365 3.74166 7.19657C3.6709 7.5716 3.66653 8.04412 3.66653 9.26631V18.6666C3.66653 21.2091 3.66865 23.0153 3.85287 24.3855C4.03322 25.727 4.37145 26.4998 4.93573 27.0641C5.50001 27.6284 6.27287 27.9666 7.61432 28.147C8.98454 28.3312 10.7908 28.3333 13.3332 28.3333H18.6665C21.209 28.3333 23.0152 28.3312 24.3854 28.147C25.7268 27.9666 26.4997 27.6284 27.064 27.0641C27.6283 26.4998 27.9665 25.727 28.1468 24.3855C28.3311 23.0153 28.3332 21.2091 28.3332 18.6666V15.7305C28.3332 13.9494 28.3313 12.7073 28.2128 11.7641C28.0973 10.8459 27.8853 10.3514 27.5637 9.99381C27.493 9.91512 27.4181 9.84023 27.3394 9.76945C26.9818 9.44785 26.4872 9.23585 25.569 9.12041C24.6259 9.00184 23.3838 8.99998 21.6027 8.99998H21.1044C21.0548 8.99998 21.0058 8.99999 20.9574 9C19.5601 9.00029 18.659 9.00047 17.8062 8.75738C17.3387 8.6241 16.888 8.43744 16.4632 8.20107C15.6882 7.76993 15.0512 7.13262 14.0634 6.1444C14.0291 6.11016 13.9945 6.0755 13.9594 6.04042L13.2257 5.30675C12.848 4.92905 12.7035 4.78597 12.5562 4.66387C11.8852 4.1076 11.062 3.76662 10.1942 3.68547C10.0037 3.66766 9.80034 3.66665 9.26619 3.66665ZM16.3332 13.3333C16.3332 12.781 16.7809 12.3333 17.3332 12.3333H23.9999C24.5521 12.3333 24.9999 12.781 24.9999 13.3333C24.9999 13.8856 24.5521 14.3333 23.9999 14.3333H17.3332C16.7809 14.3333 16.3332 13.8856 16.3332 13.3333Z" fill="#1C274C"/>
</svg>
