<svg width="32" height="32" viewBox="0 0 32 32" fill="none" xmlns="http://www.w3.org/2000/svg">
<path fill-rule="evenodd" clip-rule="evenodd" d="M8.33325 10.6667C8.33325 6.43248 11.7657 3 15.9999 3C20.2341 3 23.6666 6.43248 23.6666 10.6667V14.6667C23.6666 18.9009 20.2341 22.3333 15.9999 22.3333C11.7657 22.3333 8.33325 18.9009 8.33325 14.6667V10.6667ZM15.9999 5C12.8703 5 10.3333 7.53705 10.3333 10.6667V14.6667C10.3333 17.7963 12.8703 20.3333 15.9999 20.3333C19.1295 20.3333 21.6666 17.7963 21.6666 14.6667V10.6667C21.6666 7.53705 19.1295 5 15.9999 5ZM13.6666 10.6667C13.6666 10.1144 14.1143 9.66667 14.6666 9.66667H17.3333C17.8855 9.66667 18.3333 10.1144 18.3333 10.6667C18.3333 11.219 17.8855 11.6667 17.3333 11.6667H14.6666C14.1143 11.6667 13.6666 11.219 13.6666 10.6667ZM5.33325 12.3333C5.88554 12.3333 6.33325 12.781 6.33325 13.3333V14.6667C6.33325 20.0054 10.6612 24.3333 15.9999 24.3333C21.3387 24.3333 25.6666 20.0054 25.6666 14.6667V13.3333C25.6666 12.781 26.1143 12.3333 26.6666 12.3333C27.2189 12.3333 27.6666 12.781 27.6666 13.3333V14.6667C27.6666 20.7731 22.9751 25.7838 16.9999 26.2911V29.3333C16.9999 29.8856 16.5522 30.3333 15.9999 30.3333C15.4476 30.3333 14.9999 29.8856 14.9999 29.3333V26.2911C9.02472 25.7838 4.33325 20.7731 4.33325 14.6667V13.3333C4.33325 12.781 4.78097 12.3333 5.33325 12.3333ZM12.3333 14.6667C12.3333 14.1144 12.781 13.6667 13.3333 13.6667H18.6666C19.2189 13.6667 19.6666 14.1144 19.6666 14.6667C19.6666 15.219 19.2189 15.6667 18.6666 15.6667H13.3333C12.781 15.6667 12.3333 15.219 12.3333 14.6667Z" fill="#1C274C"/>
</svg>
