<svg width="32" height="32" viewBox="0 0 32 32" fill="none" xmlns="http://www.w3.org/2000/svg">
<path d="M15.9998 9.33333C14.5271 9.33333 13.3332 8.13943 13.3332 6.66667C13.3332 5.19391 14.5271 4 15.9998 4C17.4726 4 18.6665 5.19391 18.6665 6.66667C18.6665 8.13943 17.4726 9.33333 15.9998 9.33333Z" fill="#1C274C"/>
<path d="M15.9998 18.6667C14.5271 18.6667 13.3332 17.4728 13.3332 16C13.3332 14.5272 14.5271 13.3333 15.9998 13.3333C17.4726 13.3333 18.6665 14.5272 18.6665 16C18.6665 17.4728 17.4726 18.6667 15.9998 18.6667Z" fill="#1C274C"/>
<path d="M15.9998 28C14.5271 28 13.3332 26.8061 13.3332 25.3333C13.3332 23.8606 14.5271 22.6667 15.9998 22.6667C17.4726 22.6667 18.6665 23.8606 18.6665 25.3333C18.6665 26.8061 17.4726 28 15.9998 28Z" fill="#1C274C"/>
</svg>
