<svg width="33" height="32" viewBox="0 0 33 32" fill="none" xmlns="http://www.w3.org/2000/svg">
<path d="M22.2518 17.2082L21.6445 17.8121C21.6445 17.8121 20.2011 19.2473 16.2611 15.3297C12.3211 11.412 13.7645 9.97678 13.7645 9.97678L14.1469 9.59653C15.089 8.65981 15.1778 7.1559 14.3559 6.058L12.6746 3.81213C11.6573 2.45324 9.69153 2.27373 8.52552 3.43312L6.43272 5.51404C5.85456 6.08892 5.46712 6.83414 5.5141 7.66083C5.6343 9.77578 6.59121 14.3262 11.9307 19.6354C17.5931 25.2657 22.906 25.4894 25.0786 25.2869C25.7658 25.2228 26.3635 24.8728 26.8451 24.3939L28.7391 22.5106C30.0177 21.2394 29.6572 19.0599 28.0214 18.1707L25.474 16.7859C24.3999 16.202 23.0913 16.3735 22.2518 17.2082Z" fill="#1C274C"/>
</svg>
