<svg width="32" height="32" viewBox="0 0 32 32" fill="none" xmlns="http://www.w3.org/2000/svg">
<path fill-rule="evenodd" clip-rule="evenodd" d="M7.64374 5.39063C9.26685 3.77674 11.9393 4.06401 13.2984 5.87946L14.9797 8.12533C16.0856 9.6025 15.988 11.667 14.6753 12.9723L14.357 13.2888C14.3431 13.3292 14.3094 13.4562 14.3468 13.6974C14.4311 14.2408 14.8848 15.3933 16.7895 17.2872C18.6935 19.1804 19.8542 19.6336 20.4052 19.7182C20.655 19.7565 20.7856 19.7208 20.826 19.7067L21.37 19.1657C22.537 18.0054 24.3301 17.7885 25.7749 18.5739L28.3223 19.9587C30.5035 21.1445 31.0546 24.1094 29.2675 25.8864L27.3735 27.7697C26.7767 28.3631 25.9742 28.8579 24.9947 28.9492C22.5827 29.174 16.9584 28.8871 11.049 23.0112C5.53173 17.5253 4.47298 12.7413 4.33903 10.3842L5.33741 10.3275L4.33903 10.3842C4.27129 9.19231 4.83451 8.18391 5.55094 7.47155L7.64374 5.39063ZM11.6974 7.07805C11.0219 6.17572 9.76284 6.10398 9.05392 6.80886L6.96112 8.88978C6.52123 9.32718 6.30958 9.80922 6.3358 10.2707C6.44224 12.1435 7.2973 16.4604 12.4591 21.5929C17.8744 26.9775 22.876 27.138 24.8091 26.9578C25.2041 26.921 25.5969 26.7158 25.9633 26.3515L27.8574 24.4681C28.6273 23.7026 28.4575 22.3086 27.3671 21.7159L24.8197 20.3311C24.1163 19.9487 23.2922 20.0749 22.7802 20.584L22.1729 21.1878L21.4679 20.4787C22.1729 21.1878 22.172 21.1887 22.171 21.1897L22.1691 21.1916L22.165 21.1956L22.1564 21.2039L22.1368 21.2221C22.1228 21.2349 22.1068 21.2489 22.0887 21.2639C22.0524 21.2939 22.0079 21.3279 21.9547 21.3635C21.8479 21.435 21.7069 21.5128 21.5298 21.5788C21.1687 21.7134 20.6924 21.7856 20.102 21.695C18.9463 21.5178 17.4153 20.7298 15.3793 18.7054C13.344 16.6817 12.5494 15.1577 12.3704 14.004C12.2789 13.4141 12.3519 12.9377 12.4881 12.5763C12.5548 12.3992 12.6335 12.2583 12.7056 12.1518C12.7416 12.0987 12.7759 12.0543 12.8061 12.0182C12.8212 12.0002 12.8354 11.9842 12.8482 11.9702L12.8665 11.9508L12.8749 11.9422L12.8789 11.9381L12.8808 11.9362C12.8818 11.9352 12.8827 11.9343 13.5878 12.6434L12.8827 11.9343L13.2652 11.554C13.8366 10.9858 13.9167 10.0425 13.3787 9.32392L11.6974 7.07805Z" fill="#1C274C"/>
</svg>
