<svg width="32" height="32" viewBox="0 0 32 32" fill="none" xmlns="http://www.w3.org/2000/svg">
<path fill-rule="evenodd" clip-rule="evenodd" d="M15.9233 1.66663H16.0763C19.1542 1.66661 21.5662 1.6666 23.4482 1.91962C25.3745 2.17861 26.8946 2.71906 28.0877 3.91214C29.2807 5.10522 29.8212 6.62525 30.0802 8.55157C30.3332 10.4336 30.3332 12.8456 30.3332 15.9235V16.0765C30.3332 19.1543 30.3332 21.5664 30.0802 23.4484C29.8212 25.3747 29.2807 26.8947 28.0877 28.0878C26.8946 29.2809 25.3745 29.8213 23.4482 30.0803C21.5662 30.3333 19.1542 30.3333 16.0763 30.3333H15.9233C12.8455 30.3333 10.4334 30.3333 8.55144 30.0803C6.62513 29.8213 5.1051 29.2809 3.91202 28.0878C2.71894 26.8947 2.17849 25.3747 1.9195 23.4484C1.66647 21.5664 1.66649 19.1543 1.6665 16.0765V15.9235C1.66649 12.8456 1.66647 10.4335 1.9195 8.55157C2.17849 6.62525 2.71894 5.10522 3.91202 3.91214C5.1051 2.71906 6.62513 2.17861 8.55144 1.91962C10.4334 1.6666 12.8455 1.66661 15.9233 1.66663ZM8.81794 3.90179C7.1134 4.13096 6.08577 4.56681 5.32623 5.32635C4.56669 6.0859 4.13083 7.11352 3.90166 8.81806C3.66863 10.5514 3.6665 12.829 3.6665 16C3.6665 19.1709 3.66863 21.4486 3.90166 23.1819C4.13083 24.8864 4.56669 25.914 5.32623 26.6736C6.08577 27.4331 7.1134 27.869 8.81794 28.0981C10.5512 28.3312 12.8289 28.3333 15.9998 28.3333C19.1708 28.3333 21.4484 28.3312 23.1817 28.0981C24.8863 27.869 25.9139 27.4331 26.6734 26.6736C27.433 25.914 27.8688 24.8864 28.098 23.1819C28.331 21.4486 28.3332 19.1709 28.3332 16C28.3332 12.829 28.331 10.5514 28.098 8.81806C27.8688 7.11352 27.433 6.0859 26.6734 5.32635C25.9139 4.56681 24.8863 4.13096 23.1817 3.90179C21.4484 3.66875 19.1708 3.66663 15.9998 3.66663C12.8289 3.66663 10.5512 3.66875 8.81794 3.90179ZM21.3332 8.99996C20.4127 8.99996 19.6665 9.74615 19.6665 10.6666C19.6665 11.5871 20.4127 12.3333 21.3332 12.3333C22.2536 12.3333 22.9998 11.5871 22.9998 10.6666C22.9998 9.74615 22.2536 8.99996 21.3332 8.99996ZM17.6665 10.6666C17.6665 8.64158 19.3081 6.99996 21.3332 6.99996C23.3582 6.99996 24.9998 8.64158 24.9998 10.6666C24.9998 12.6917 23.3582 14.3333 21.3332 14.3333C19.3081 14.3333 17.6665 12.6917 17.6665 10.6666ZM11.3385 17.5688C10.5597 16.7421 9.25985 16.6987 8.42772 17.4716L7.34705 18.4754C6.94239 18.8512 6.30965 18.8279 5.9338 18.4232C5.55794 18.0185 5.5813 17.3858 5.98596 17.01L7.06664 16.0062C8.70405 14.4854 11.2618 14.5707 12.7942 16.1974L16.3242 19.9445C16.6934 20.3364 17.2979 20.3892 17.7295 20.0672C19.3293 18.8737 21.557 19.0094 23.0002 20.3881L26.0239 23.2769C26.4233 23.6584 26.4377 24.2914 26.0562 24.6907C25.6747 25.0901 25.0417 25.1045 24.6424 24.723L21.6186 21.8343C20.8812 21.1297 19.7429 21.0604 18.9254 21.6703C17.6794 22.5998 15.9344 22.4474 14.8684 21.3159L11.3385 17.5688Z" fill="#1C274C"/>
</svg>
