<svg width="32" height="32" viewBox="0 0 32 32" fill="none" xmlns="http://www.w3.org/2000/svg">
<path fill-rule="evenodd" clip-rule="evenodd" d="M15.0001 2.66663C15.0001 2.11434 15.4478 1.66663 16.0001 1.66663C23.9162 1.66663 30.3334 8.08388 30.3334 16C30.3334 23.916 23.9162 30.3333 16.0001 30.3333C8.084 30.3333 1.66675 23.916 1.66675 16C1.66675 15.4477 2.11446 15 2.66675 15C3.21903 15 3.66675 15.4477 3.66675 16C3.66675 22.8115 9.18857 28.3333 16.0001 28.3333C22.8116 28.3333 28.3334 22.8115 28.3334 16C28.3334 9.18845 22.8116 3.66663 16.0001 3.66663C15.4478 3.66663 15.0001 3.21891 15.0001 2.66663ZM16.0001 11C16.5524 11 17.0001 11.4477 17.0001 12V16.3333H21.3334C21.8857 16.3333 22.3334 16.781 22.3334 17.3333C22.3334 17.8856 21.8857 18.3333 21.3334 18.3333H16.0001C15.4478 18.3333 15.0001 17.8856 15.0001 17.3333V12C15.0001 11.4477 15.4478 11 16.0001 11Z" fill="#1C274C"/>
<path fill-rule="evenodd" clip-rule="evenodd" d="M12.1328 3.19668C12.3317 3.71191 12.0753 4.29082 11.5601 4.48971C11.3715 4.5625 11.1851 4.6398 11.0011 4.72149C10.4964 4.94558 9.9055 4.71804 9.68141 4.21326C9.45732 3.70848 9.68486 3.11761 10.1896 2.89352C10.4036 2.79851 10.6204 2.70859 10.8398 2.6239C11.3551 2.42501 11.934 2.68145 12.1328 3.19668ZM7.53035 5.65365C7.91124 6.05358 7.89579 6.68656 7.49586 7.06744C7.34963 7.2067 7.20682 7.34951 7.06756 7.49574C6.68668 7.89567 6.0537 7.91111 5.65377 7.53023C5.25383 7.14935 5.23839 6.51637 5.61927 6.11644C5.78096 5.94666 5.94678 5.78084 6.11656 5.61915C6.51649 5.23827 7.14947 5.25371 7.53035 5.65365ZM4.21338 9.68129C4.71816 9.90538 4.9457 10.4962 4.72161 11.001C4.63993 11.185 4.56262 11.3714 4.48983 11.5599C4.29094 12.0752 3.71203 12.3316 3.1968 12.1327C2.68157 11.9338 2.42513 11.3549 2.62402 10.8397C2.70871 10.6203 2.79863 10.4035 2.89364 10.1895C3.11773 9.68474 3.7086 9.4572 4.21338 9.68129Z" fill="#1C274C"/>
</svg>
