<svg width="32" height="32" viewBox="0 0 32 32" fill="none" xmlns="http://www.w3.org/2000/svg">
<path fill-rule="evenodd" clip-rule="evenodd" d="M15.3332 3.66663C8.88985 3.66663 3.6665 8.88997 3.6665 15.3333C3.6665 21.7766 8.88985 27 15.3332 27C21.7765 27 26.9998 21.7766 26.9998 15.3333C26.9998 8.88997 21.7765 3.66663 15.3332 3.66663ZM1.6665 15.3333C1.6665 7.7854 7.78528 1.66663 15.3332 1.66663C22.8811 1.66663 28.9998 7.7854 28.9998 15.3333C28.9998 18.7473 27.748 21.8689 25.6783 24.2642L30.0403 28.6262C30.4308 29.0167 30.4308 29.6499 30.0403 30.0404C29.6498 30.4309 29.0166 30.4309 28.6261 30.0404L24.2641 25.6784C21.8688 27.7481 18.7472 29 15.3332 29C7.78528 29 1.6665 22.8812 1.6665 15.3333Z" fill="#1C274C"/>
</svg>
