<svg width="32" height="32" viewBox="0 0 32 32" fill="none" xmlns="http://www.w3.org/2000/svg">
<path d="M24.8476 20.8935L27.1362 14.0277C29.1355 8.02985 30.1352 5.03092 28.5521 3.4479C26.9691 1.86487 23.9702 2.86451 17.9724 4.86379L11.1066 7.15239C6.26573 8.766 3.84531 9.57281 3.15749 10.7559C2.50317 11.8815 2.50317 13.2715 3.15749 14.3971C3.84531 15.5802 6.26573 16.387 11.1066 18.0006C11.7065 18.2006 12.3814 18.0578 12.8307 17.6127L20.1715 10.3399C20.5845 9.93074 21.251 9.93384 21.6601 10.3468C22.0693 10.7598 22.0662 11.4263 21.6532 11.8355L14.4309 18.9909C13.9358 19.4814 13.779 20.2322 13.9994 20.8935C15.613 25.7343 16.4198 28.1547 17.603 28.8425C18.7285 29.4969 20.1186 29.4969 21.2441 28.8425C22.4272 28.1547 23.234 25.7343 24.8476 20.8935Z" fill="#397EE4"/>
</svg>
