<svg width="32" height="32" viewBox="0 0 32 32" fill="none" xmlns="http://www.w3.org/2000/svg">
<path fill-rule="evenodd" clip-rule="evenodd" d="M15.9998 3.66663C9.18833 3.66663 3.6665 9.18845 3.6665 16C3.6665 22.8115 9.18833 28.3333 15.9998 28.3333C22.8113 28.3333 28.3332 22.8115 28.3332 16C28.3332 9.18845 22.8113 3.66663 15.9998 3.66663ZM1.6665 16C1.6665 8.08388 8.08376 1.66663 15.9998 1.66663C23.9159 1.66663 30.3332 8.08388 30.3332 16C30.3332 23.916 23.9159 30.3333 15.9998 30.3333C8.08376 30.3333 1.6665 23.916 1.6665 16ZM11.1965 20.7378C11.5253 20.2941 12.1516 20.201 12.5953 20.5299C13.5664 21.2498 14.7386 21.6666 15.9998 21.6666C17.261 21.6666 18.4332 21.2498 19.4044 20.5299C19.848 20.201 20.4743 20.2941 20.8032 20.7378C21.1321 21.1815 21.039 21.8078 20.5953 22.1367C19.2988 23.0977 17.7131 23.6666 15.9998 23.6666C14.2865 23.6666 12.7009 23.0977 11.4044 22.1367C10.9607 21.8078 10.8676 21.1815 11.1965 20.7378Z" fill="#1C274C"/>
<path d="M21.3332 14C21.3332 15.1045 20.7362 16 19.9998 16C19.2635 16 18.6665 15.1045 18.6665 14C18.6665 12.8954 19.2635 12 19.9998 12C20.7362 12 21.3332 12.8954 21.3332 14Z" fill="#1C274C"/>
<path d="M13.3332 14C13.3332 15.1045 12.7362 16 11.9998 16C11.2635 16 10.6665 15.1045 10.6665 14C10.6665 12.8954 11.2635 12 11.9998 12C12.7362 12 13.3332 12.8954 13.3332 14Z" fill="#1C274C"/>
</svg>
