<svg width="32" height="32" viewBox="0 0 32 32" fill="none" xmlns="http://www.w3.org/2000/svg">
<path d="M5.23217 8.98798H26.7678C27.4494 8.98798 28 8.4681 28 7.8273C28 7.18682 27.4497 6.66663 26.7678 6.66663H5.23217C4.55187 6.66663 4 7.18651 4 7.8273C4 8.4681 4.55187 8.98798 5.23217 8.98798ZM26.7675 14.7914H5.23217C4.55031 14.7914 4 15.3113 4 15.9521C4 16.5928 4.55031 17.1127 5.23217 17.1127H26.7678C27.4494 17.1127 28 16.5928 28 15.9521C27.9997 15.3113 27.4459 14.7914 26.7675 14.7914ZM26.7675 23.0119H5.23217C4.55218 23.0119 4 23.5318 4 24.1726C4 24.8134 4.55187 25.3333 5.23217 25.3333H26.7678C27.4494 25.3333 28 24.8134 28 24.1726C27.9997 23.5321 27.4494 23.0119 26.7675 23.0119Z" fill="#898FA3"/>
</svg>
