<svg width="72" height="72" viewBox="0 0 72 72" fill="none" xmlns="http://www.w3.org/2000/svg">
<g filter="url(#filter0_d_114_1881)">
<circle cx="36" cy="34" r="30" fill="#397EE4"/>
<g clip-path="url(#clip0_114_1881)">
<circle cx="35.9999" cy="25.4285" r="5.71429" fill="white"/>
<path fill-rule="evenodd" clip-rule="evenodd" d="M42.4287 48.2857C40.0717 48.2857 38.8932 48.2857 38.1609 47.5535C37.4287 46.8212 37.4287 45.6427 37.4287 43.2857C37.4287 40.9287 37.4287 39.7502 38.1609 39.0179C38.8932 38.2857 40.0717 38.2857 42.4287 38.2857C44.7857 38.2857 45.9642 38.2857 46.6965 39.0179C47.4287 39.7502 47.4287 40.9287 47.4287 43.2857C47.4287 45.6427 47.4287 46.8212 46.6965 47.5535C45.9642 48.2857 44.7857 48.2857 42.4287 48.2857ZM43.262 41.0635C43.262 40.6032 42.8889 40.2302 42.4287 40.2302C41.9685 40.2302 41.5954 40.6032 41.5954 41.0635V42.4524H40.2065C39.7463 42.4524 39.3732 42.8255 39.3732 43.2857C39.3732 43.7459 39.7463 44.119 40.2065 44.119H41.5954V45.5079C41.5954 45.9682 41.9685 46.3413 42.4287 46.3413C42.8889 46.3413 43.262 45.9682 43.262 45.5079V44.119H44.6509C45.1112 44.119 45.4843 43.7459 45.4843 43.2857C45.4843 42.8255 45.1112 42.4524 44.6509 42.4524H43.262V41.0635Z" fill="white" fill-opacity="0.8"/>
<path d="M41.2547 36.1468C40.5789 36.155 39.9489 36.1796 39.4 36.2534C38.4816 36.3769 37.4763 36.672 36.6457 37.5027C35.8151 38.3333 35.52 39.3385 35.3965 40.2569C35.2855 41.0823 35.2857 42.0906 35.2858 43.1628V43.4085C35.2857 44.4807 35.2855 45.489 35.3965 46.3144C35.4831 46.9588 35.6543 47.646 36.0357 48.2857C36.0238 48.2857 36.012 48.2857 36.0001 48.2857C24.5715 48.2857 24.5715 45.4075 24.5715 41.8571C24.5715 38.3067 29.6883 35.4285 36.0001 35.4285C37.8946 35.4285 39.6815 35.6878 41.2547 36.1468Z" fill="white"/>
</g>
</g>
<defs>
<filter id="filter0_d_114_1881" x="0" y="0" width="72" height="72" filterUnits="userSpaceOnUse" color-interpolation-filters="sRGB">
<feFlood flood-opacity="0" result="BackgroundImageFix"/>
<feColorMatrix in="SourceAlpha" type="matrix" values="0 0 0 0 0 0 0 0 0 0 0 0 0 0 0 0 0 0 127 0" result="hardAlpha"/>
<feOffset dy="2"/>
<feGaussianBlur stdDeviation="3"/>
<feComposite in2="hardAlpha" operator="out"/>
<feColorMatrix type="matrix" values="0 0 0 0 0.344804 0 0 0 0 0.391572 0 0 0 0 0.511833 0 0 0 0.25 0"/>
<feBlend mode="normal" in2="BackgroundImageFix" result="effect1_dropShadow_114_1881"/>
<feBlend mode="normal" in="SourceGraphic" in2="effect1_dropShadow_114_1881" result="shape"/>
</filter>
<clipPath id="clip0_114_1881">
<rect width="34.2857" height="34.2857" fill="white" transform="translate(18.8572 16.8571)"/>
</clipPath>
</defs>
</svg>
