<svg width="24" height="24" viewBox="0 0 24 24" fill="none" xmlns="http://www.w3.org/2000/svg">
<g clip-path="url(#clip0_288_9303)">
<g clip-path="url(#clip1_288_9303)">
<path d="M0.000976562 15.0017C0.000976562 16.4225 1.13763 17.6539 2.65316 17.6539V12.4442C1.13763 12.3495 0.000976562 13.5809 0.000976562 15.0017ZM21.3133 12.3495V17.5591C22.7341 17.5591 23.9655 16.4225 23.9655 14.9069C23.9655 13.5809 22.8288 12.3495 21.3133 12.3495Z" fill="#1C274C" fill-opacity="0.5"/>
<path d="M13.6409 6.38208H10.231C5.58962 6.38208 1.80078 10.1709 1.80078 14.8123C1.80078 19.4536 5.5896 23.2424 10.2309 23.2424H13.6409C18.2822 23.2424 22.0711 19.4536 22.0711 14.8123C22.0711 10.1709 18.2822 6.38208 13.6409 6.38208ZM14.6828 20.9691H9.189C6.72625 20.9691 4.7371 18.98 4.7371 16.5172C4.7371 14.0545 6.72625 12.0653 9.189 12.0653H14.6828C17.1456 12.0653 19.1347 14.0545 19.1347 16.5172C19.2294 18.98 17.1456 20.9691 14.6828 20.9691Z" fill="#1C274C"/>
<path d="M8.24165 14.244C8.71526 14.244 8.99942 14.6229 8.99942 15.0018V17.8434C8.99942 18.317 8.62054 18.6012 8.24165 18.6012C7.76804 18.6012 7.48389 18.2223 7.48389 17.8434V15.0018C7.48389 14.6229 7.86277 14.244 8.24165 14.244ZM15.6299 14.244C16.1035 14.244 16.3877 14.6229 16.3877 15.0018V17.8434C16.3877 18.317 16.0088 18.6012 15.6299 18.6012C15.1563 18.6012 14.8721 18.2223 14.8721 17.8434V15.0018C14.8721 14.6229 15.251 14.244 15.6299 14.244ZM10.4203 4.48773H10.2308C9.94664 4.393 9.85192 4.10884 9.94664 3.91939C10.3255 3.16162 11.0833 2.68801 11.9358 2.78274C12.6936 2.68801 13.4513 3.0669 13.8302 3.82469C13.9249 4.10882 13.8302 4.29827 13.6408 4.48773C13.3566 4.58245 13.1672 4.48773 12.9777 4.29827C12.6936 4.01412 12.3147 3.82469 11.9358 3.82469C11.5569 3.72996 11.0833 3.91939 10.7991 4.29827C10.7991 4.393 10.7044 4.48773 10.4203 4.48773Z" fill="#1C274C"/>
<path d="M8.99946 2.87744C8.90473 2.87744 8.81002 2.87744 8.7153 2.78271C8.52584 2.59328 8.52584 2.3091 8.62057 2.11967C9.47309 1.26718 10.7044 0.793569 11.9358 0.793569C13.1672 0.698843 14.3039 1.17245 15.251 2.02497C15.4405 2.2144 15.4405 2.49856 15.251 2.68799C15.0616 2.87744 14.7774 2.87744 14.588 2.68799C13.925 2.02495 12.9777 1.74079 12.0305 1.74079C11.0833 1.64606 10.1361 2.02495 9.47307 2.68799C9.28361 2.78271 9.18891 2.78271 8.99946 2.87744Z" fill="#1C274C"/>
</g>
</g>
<defs>
<clipPath id="clip0_288_9303">
<rect width="24" height="24" fill="white"/>
</clipPath>
<clipPath id="clip1_288_9303">
<rect width="24" height="24" fill="white"/>
</clipPath>
</defs>
</svg>
