<svg width="24" height="24" viewBox="0 0 24 24" fill="none" xmlns="http://www.w3.org/2000/svg">
<path d="M3.92413 6.74102H20.0759C20.587 6.74102 21 6.3511 21 5.87051C21 5.39014 20.5873 5 20.0759 5H3.92413C3.4139 5 3 5.38992 3 5.87051C3 6.3511 3.4139 6.74102 3.92413 6.74102ZM20.0756 11.0936H3.92413C3.41273 11.0936 3 11.4835 3 11.9641C3 12.4447 3.41273 12.8346 3.92413 12.8346H20.0759C20.587 12.8346 21 12.4447 21 11.9641C20.9998 11.4835 20.5845 11.0936 20.0756 11.0936ZM20.0756 17.259H3.92413C3.41414 17.259 3 17.6489 3 18.1295C3 18.6101 3.4139 19 3.92413 19H20.0759C20.587 19 21 18.6101 21 18.1295C20.9998 17.6491 20.587 17.259 20.0756 17.259Z" fill="#898FA3"/>
</svg>
