<svg width="24" height="24" viewBox="0 0 24 24" fill="none" xmlns="http://www.w3.org/2000/svg">
<path d="M15.1875 7.20005H5.10005L8.10005 4.20005C8.40005 3.90005 8.40005 3.45005 8.10005 3.15005C7.80005 2.85005 7.35005 2.85005 7.05005 3.15005L2.77505 7.38755C2.62505 7.53755 2.55005 7.72505 2.55005 7.91255C2.55005 8.10005 2.62505 8.28755 2.77505 8.43755L7.01255 12.675C7.31255 12.975 7.76255 12.975 8.06255 12.675C8.36255 12.375 8.36255 11.925 8.06255 11.625L5.13755 8.70005H15.1875C18 8.70005 20.25 10.95 20.25 13.7625C20.25 16.575 18 18.825 15.1875 18.825H7.50005C7.08755 18.825 6.75005 19.1625 6.75005 19.575C6.75005 19.9875 7.08755 20.325 7.50005 20.325H15.1875C18.825 20.325 21.75 17.4 21.75 13.7625C21.75 10.125 18.825 7.20005 15.1875 7.20005Z" fill="#898FA3"/>
</svg>
