<svg width="80" height="80" viewBox="0 0 80 80" fill="none" xmlns="http://www.w3.org/2000/svg">
<circle cx="40.0001" cy="20" r="13.3333" fill="#EFEEF3"/>
<path fill-rule="evenodd" clip-rule="evenodd" d="M60 52.5C55.8579 52.5 52.5 55.8579 52.5 60C52.5 61.1578 52.7624 62.2544 53.2309 63.2334L63.2335 53.2309C62.2544 52.7624 61.1579 52.5 60 52.5ZM66.7691 56.7664L56.7663 66.769C57.7455 67.2376 58.8421 67.5 60 67.5C64.1421 67.5 67.5 64.1421 67.5 60C67.5 58.8421 67.2376 57.7455 66.7691 56.7664ZM47.5 60C47.5 53.0964 53.0964 47.5 60 47.5C66.9036 47.5 72.5 53.0964 72.5 60C72.5 66.9036 66.9036 72.5 60 72.5C53.0964 72.5 47.5 66.9036 47.5 60Z" fill="#EFEEF3"/>
<path d="M51.0889 44.9355C45.9472 47.9836 42.5001 53.5892 42.5001 60C42.5001 63.5642 43.5656 66.8796 45.3956 69.645C43.6637 69.8792 41.8573 70.0032 40.0001 70.0032C27.1134 70.0032 16.6667 64.0337 16.6667 56.6699C16.6667 49.3061 27.1134 43.3365 40.0001 43.3365C44.0137 43.3365 47.7906 43.9156 51.0889 44.9355Z" fill="#EFEEF3"/>
</svg>
