<svg width="68" height="68" viewBox="0 0 68 68" fill="none" xmlns="http://www.w3.org/2000/svg">
<path d="M34.0002 67.3333C52.4097 67.3333 67.3335 52.4095 67.3335 34C67.3335 15.5905 52.4097 0.666668 34.0002 0.666668C15.5907 0.666668 0.666832 15.5905 0.666832 34C0.666832 39.3323 1.91888 44.3721 4.14503 48.8416C4.73662 50.0293 4.93353 51.3869 4.59056 52.6687L2.6052 60.0888C1.74335 63.3099 4.69021 66.2568 7.91132 65.395L15.3314 63.4096C16.6133 63.0666 17.9709 63.2635 19.1586 63.8551C23.628 66.0813 28.6679 67.3333 34.0002 67.3333Z" fill="#EFEEF3"/>
<path d="M44.0002 34C44.0002 35.841 45.4925 37.3333 47.3335 37.3333C49.1744 37.3333 50.6668 35.841 50.6668 34C50.6668 32.1591 49.1744 30.6667 47.3335 30.6667C45.4925 30.6667 44.0002 32.1591 44.0002 34Z" fill="white"/>
<path d="M30.6668 34C30.6668 35.841 32.1592 37.3333 34.0002 37.3333C35.8411 37.3333 37.3335 35.841 37.3335 34C37.3335 32.1591 35.8411 30.6667 34.0002 30.6667C32.1592 30.6667 30.6668 32.1591 30.6668 34Z" fill="white"/>
<path d="M17.3335 34C17.3335 35.841 18.8259 37.3333 20.6668 37.3333C22.5078 37.3333 24.0002 35.841 24.0002 34C24.0002 32.1591 22.5078 30.6667 20.6668 30.6667C18.8259 30.6667 17.3335 32.1591 17.3335 34Z" fill="white"/>
</svg>
